# xmcd
#
# Track frame offsets:
#	150
#	22081
#	43514
#	67045
#	86663
#	112550
#	127994
#	153968
#	178830
#	202340
#	220834
#	245007
#	263401
#
# Disc length: 3765 seconds
#
# Revision: 0
# Processed by: cddbd v1.5.2PL0 Copyright (c) Steve Scherf et al.
# Submitted via: EasyCDDAExtractor 16.1.0.1
#
DISCID=b30eb30d
DTITLE=Tony Allysson - Soberano
DYEAR=2014
DGENRE=Gospel
TTITLE0=Deus da Vida
TTITLE1=Purifica-me
TTITLE2=Soberano
TTITLE3=Nada Mais Importa
TTITLE4=Transforma-me
TTITLE5=Triunfarei
TTITLE6=Deus De Milagres
TTITLE7=O Véu Já Foi Rasgado
TTITLE8=Vou Me Abrigar
TTITLE9=Teu Amor É Tão Lindo
TTITLE10=Colo De Mãe
TTITLE11=Minha Família
TTITLE12=Invocarei
EXTD=
EXTT0=
EXTT1=
EXTT2=
EXTT3=
EXTT4=
EXTT5=
EXTT6=
EXTT7=
EXTT8=
EXTT9=
EXTT10=
EXTT11=
EXTT12=
PLAYORDER=
